<svg width="40" height="50" viewBox="0 0 40 50" fill="none" xmlns="http://www.w3.org/2000/svg">
<g clip-path="url(#clip0_385_4230)">
<path d="M3.29822 16.4736H6.59646V22.9999H3.29822V16.4736Z" fill="#D83F97"/>
<path d="M6.52637 9.94775H9.82461V16.4741H6.52637V9.94775Z" fill="#D83F97"/>
<path d="M16.351 19.7725H19.6492V23.0707H16.351V19.7725Z" fill="#D83F97"/>
<path d="M19.6492 23.0708H26.1755V26.369H19.6492V23.0708Z" fill="#D83F97"/>
<path d="M13.1228 3.42139H16.421V6.71963H13.1228V3.42139Z" fill="#D83F97"/>
<path d="M9.82446 0.123047H13.1227V3.42129H9.82446V0.123047Z" fill="#D83F97"/>
<path d="M9.82446 6.64941H13.1227V9.94766H9.82446V6.64941Z" fill="#D83F97"/>
<path d="M32.772 18.1582H36.0702V26.3687H32.772V18.1582Z" fill="#D83F97"/>
<path d="M29.4736 14.8599H32.7719V18.1581H29.4736V14.8599Z" fill="#D83F97"/>
<path d="M29.4736 39.4214H32.7719V42.7196H29.4736V39.4214Z" fill="#D83F97"/>
<path d="M6.52637 39.4214H9.82461V42.7196H6.52637V39.4214Z" fill="#D83F97"/>
<path d="M24.5614 42.7197H29.4737V46.018H24.5614V42.7197Z" fill="#D83F97"/>
<path d="M9.82446 42.7197H14.7367V46.018H9.82446V42.7197Z" fill="#D83F97"/>
<path d="M14.7368 45.9478H24.5614V49.246H14.7368V45.9478Z" fill="#D83F97"/>
<path d="M32.772 32.8955H36.0702V39.4218H32.772V32.8955Z" fill="#D83F97"/>
<path d="M36 26.2983H39.2982V32.8247H36V26.2983Z" fill="#D83F97"/>
<path d="M26.1754 11.5615H29.4737V14.8598H26.1754V11.5615Z" fill="#D83F97"/>
<path d="M26.1754 18.1582H29.4737V23.0705H26.1754V18.1582Z" fill="#D83F97"/>
<path d="M16.351 6.64941H19.6492V13.1757H16.351V6.64941Z" fill="#D83F97"/>
<path d="M0 23.0708H3.29825V32.8954H0V23.0708Z" fill="#D83F97"/>
<path d="M13.1228 13.2461H16.421V19.7724H13.1228V13.2461Z" fill="#D83F97"/>
<path d="M3.29822 32.8955H6.59646V39.4218H3.29822V32.8955Z" fill="#D83F97"/>
</g>
<defs>
<clipPath id="clip0_385_4230">
<rect width="40" height="49.1228" fill="white" transform="translate(0 0.123047)"/>
</clipPath>
</defs>
</svg>
