<svg width="40" height="41" viewBox="0 0 40 41" fill="none" xmlns="http://www.w3.org/2000/svg">
<path d="M28.333 35.123H11.666V31.79H28.333V35.123ZM11.666 31.7891H8.33301V28.4561H11.666V31.7891ZM31.666 31.7891H28.333V28.4561H31.666V31.7891ZM8.33301 28.457H5V11.79H8.33301V28.457ZM35 28.457H31.666V11.79H35V28.457ZM20 25.123H16.666V21.79H20V25.123ZM16.667 21.7891H13.334V18.4561H16.667V21.7891ZM20 18.4561H23.333V15.123H26.666V18.4561H23.334V21.7891H20V18.4561ZM11.666 11.7891H8.33301V8.45605H11.666V11.7891ZM31.666 11.7891H28.333V8.45605H31.666V11.7891ZM28.333 8.45605H11.666V5.12305H28.333V8.45605Z" fill="#73FF84"/>
</svg>
