<svg width="17" height="20" viewBox="0 0 17 20" fill="none" xmlns="http://www.w3.org/2000/svg">
<path d="M1.34277 6.65698H2.68563V9.31413H1.34277V6.65698Z" fill="#D83F97"/>
<path d="M2.65723 4H4.00008V6.65714H2.65723V4Z" fill="#D83F97"/>
<path d="M6.65723 8H8.00008V9.34286H6.65723V8Z" fill="#D83F97"/>
<path d="M8 9.34302H10.6571V10.6859H8V9.34302Z" fill="#D83F97"/>
<path d="M5.34277 1.34302H6.68563V2.68587H5.34277V1.34302Z" fill="#D83F97"/>
<path d="M4 0H5.34286V1.34286H4V0Z" fill="#D83F97"/>
<path d="M4 2.65723H5.34286V4.00008H4V2.65723Z" fill="#D83F97"/>
<path d="M13.3428 7.34302H14.6856V10.6859H13.3428V7.34302Z" fill="#D83F97"/>
<path d="M12 6H13.3429V7.34286H12V6Z" fill="#D83F97"/>
<path d="M12 16H13.3429V17.3429H12V16Z" fill="#D83F97"/>
<path d="M2.65723 16H4.00008V17.3429H2.65723V16Z" fill="#D83F97"/>
<path d="M10 17.343H12V18.6859H10V17.343Z" fill="#D83F97"/>
<path d="M4 17.343H6V18.6859H4V17.343Z" fill="#D83F97"/>
<path d="M6 18.6572H10V20.0001H6V18.6572Z" fill="#D83F97"/>
<path d="M13.3428 13.343H14.6856V16.0002H13.3428V13.343Z" fill="#D83F97"/>
<path d="M14.6572 10.657H16.0001V13.3141H14.6572V10.657Z" fill="#D83F97"/>
<path d="M10.6572 4.65723H12.0001V6.00008H10.6572V4.65723Z" fill="#D83F97"/>
<path d="M10.6572 7.34302H12.0001V9.34302H10.6572V7.34302Z" fill="#D83F97"/>
<path d="M6.65723 2.65723H8.00008V5.31437H6.65723V2.65723Z" fill="#D83F97"/>
<path d="M0 9.34302H1.34286V13.343H0V9.34302Z" fill="#D83F97"/>
<path d="M5.34277 5.34302H6.68563V8.00016H5.34277V5.34302Z" fill="#D83F97"/>
<path d="M1.34277 13.343H2.68563V16.0002H1.34277V13.343Z" fill="#D83F97"/>
</svg>
