<svg width="24" height="24" viewBox="0 0 24 24" fill="none" xmlns="http://www.w3.org/2000/svg">
<g clip-path="url(#clip0_1501_3062)">
<path d="M1.00967 11.26L3.99967 13.5V20.45C3.99967 21.84 4.97967 23.07 6.32967 23.38C8.18967 23.79 10.0997 24 11.9997 24C13.8997 24 15.7997 23.79 17.6597 23.38C19.0397 23.07 19.9997 21.86 19.9997 20.45V13.5L22.9897 11.26C23.7097 10.72 23.9797 9.75 23.6397 8.92L22.4897 6.04C22.0397 4.9 21.1797 3.97 20.0897 3.43L17.3897 2.08C17.3097 1.94 17.2097 1.8 17.0897 1.68L16.1997 0.78C15.6997 0.2899 15.0097 0 14.3097 0H9.68967C8.98967 0 8.29967 0.29 7.79967 0.78L6.90967 1.68C6.78967 1.8 6.68967 1.94 6.60967 2.08L3.90967 3.43C2.81967 3.97 1.95967 4.9 1.50967 6.04L0.359667 8.92C0.0196666 9.75 0.289667 10.72 1.00967 11.26ZM10.9997 11V9C10.9997 8.4478 11.4475 8 11.9997 8C12.5519 8 12.9997 8.4478 12.9997 9V11C12.9997 11.5522 12.5519 12 11.9997 12C11.4475 12 10.9997 11.5522 10.9997 11ZM9.21967 2.2C9.33977 2.07 9.51967 2 9.68967 2H14.3097C14.4797 2 14.6597 2.07 14.7797 2.2L15.6797 3.09L13.6997 5.73L12.8897 5.33C12.6097 5.19 12.3097 5.12 11.9997 5.12C11.6897 5.12 11.3897 5.19 11.1097 5.33L10.2997 5.73L8.31967 3.09L9.21967 2.2Z" fill="#D83F97"/>
</g>
<defs>
<clipPath id="clip0_1501_3062">
<rect width="24" height="24" fill="white"/>
</clipPath>
</defs>
</svg>
