<svg width="20" height="20" viewBox="0 0 20 20" fill="none" xmlns="http://www.w3.org/2000/svg">
<path d="M12.083 4.5834L13.333 5.8334M9.58298 7.0834L10.833 8.3334M7.08298 9.5834L8.33298 10.8334M4.58298 12.0834L5.83298 13.3334M2.13768 14.6382L5.36154 17.862C5.52655 18.027 5.60905 18.1095 5.70419 18.1405C5.78787 18.1676 5.87802 18.1676 5.9617 18.1405C6.05684 18.1095 6.13934 18.027 6.30435 17.862L17.8615 6.30484C18.0265 6.13983 18.1091 6.05733 18.14 5.96219C18.1672 5.87851 18.1672 5.78836 18.14 5.70468C18.1091 5.60954 18.0265 5.52704 17.8615 5.36203L14.6377 2.13817C14.4727 1.97316 14.3902 1.89066 14.295 1.85975C14.2114 1.83256 14.1212 1.83256 14.0375 1.85975C13.9424 1.89066 13.8599 1.97316 13.6949 2.13817L2.13768 13.6954C1.97268 13.8604 1.89017 13.9429 1.85926 14.038C1.83207 14.1217 1.83207 14.2118 1.85926 14.2955C1.89017 14.3907 1.97268 14.4732 2.13768 14.6382Z" stroke="white" stroke-width="1.2" stroke-linecap="round" stroke-linejoin="round"/>
</svg>
