<svg width="24" height="25" viewBox="0 0 24 25" fill="none" xmlns="http://www.w3.org/2000/svg">
<g clip-path="url(#clip0_478_1799)">
<path d="M24 12.3682C24 5.74074 18.6274 0.368164 12 0.368164C5.37258 0.368164 0 5.74074 0 12.3682C0 18.3576 4.3882 23.3221 10.125 24.2224V15.8369H7.07812V12.3682H10.125V9.72441C10.125 6.71691 11.9166 5.05566 14.6576 5.05566C15.9701 5.05566 17.3438 5.29004 17.3438 5.29004V8.24316H15.8306C14.34 8.24316 13.875 9.16824 13.875 10.1182V12.3682H17.2031L16.6711 15.8369H13.875V24.2224C19.6118 23.3221 24 18.3576 24 12.3682Z" fill="#D5D5D5"/>
</g>
<defs>
<clipPath id="clip0_478_1799">
<rect width="24" height="24" fill="white" transform="translate(0 0.368164)"/>
</clipPath>
</defs>
</svg>
