<svg width="24" height="25" viewBox="0 0 24 25" fill="none" xmlns="http://www.w3.org/2000/svg">
<g clip-path="url(#clip0_478_1800)">
<path d="M12 2.5291C15.2063 2.5291 15.5859 2.54316 16.8469 2.59941C18.0188 2.65098 18.6516 2.84785 19.0734 3.01191C19.6313 3.22754 20.0344 3.49004 20.4516 3.90723C20.8734 4.3291 21.1313 4.72754 21.3469 5.28535C21.5109 5.70723 21.7078 6.34473 21.7594 7.51191C21.8156 8.77754 21.8297 9.15723 21.8297 12.3588C21.8297 15.565 21.8156 15.9447 21.7594 17.2057C21.7078 18.3775 21.5109 19.0104 21.3469 19.4322C21.1313 19.99 20.8687 20.3932 20.4516 20.8104C20.0297 21.2322 19.6313 21.49 19.0734 21.7057C18.6516 21.8697 18.0141 22.0666 16.8469 22.1182C15.5813 22.1744 15.2016 22.1885 12 22.1885C8.79375 22.1885 8.41406 22.1744 7.15313 22.1182C5.98125 22.0666 5.34844 21.8697 4.92656 21.7057C4.36875 21.49 3.96563 21.2275 3.54844 20.8104C3.12656 20.3885 2.86875 19.99 2.65313 19.4322C2.48906 19.0104 2.29219 18.3729 2.24063 17.2057C2.18438 15.94 2.17031 15.5604 2.17031 12.3588C2.17031 9.15254 2.18438 8.77285 2.24063 7.51191C2.29219 6.34004 2.48906 5.70723 2.65313 5.28535C2.86875 4.72754 3.13125 4.32441 3.54844 3.90723C3.97031 3.48535 4.36875 3.22754 4.92656 3.01191C5.34844 2.84785 5.98594 2.65098 7.15313 2.59941C8.41406 2.54316 8.79375 2.5291 12 2.5291ZM12 0.368164C8.74219 0.368164 8.33438 0.382227 7.05469 0.438477C5.77969 0.494727 4.90313 0.700976 4.14375 0.996289C3.35156 1.30566 2.68125 1.71348 2.01563 2.38379C1.34531 3.04941 0.9375 3.71973 0.628125 4.50723C0.332812 5.27129 0.126563 6.14316 0.0703125 7.41816C0.0140625 8.70254 0 9.11035 0 12.3682C0 15.626 0.0140625 16.0338 0.0703125 17.3135C0.126563 18.5885 0.332812 19.465 0.628125 20.2244C0.9375 21.0166 1.34531 21.6869 2.01563 22.3525C2.68125 23.0182 3.35156 23.4307 4.13906 23.7354C4.90313 24.0307 5.775 24.2369 7.05 24.2932C8.32969 24.3494 8.7375 24.3635 11.9953 24.3635C15.2531 24.3635 15.6609 24.3494 16.9406 24.2932C18.2156 24.2369 19.0922 24.0307 19.8516 23.7354C20.6391 23.4307 21.3094 23.0182 21.975 22.3525C22.6406 21.6869 23.0531 21.0166 23.3578 20.2291C23.6531 19.465 23.8594 18.5932 23.9156 17.3182C23.9719 16.0385 23.9859 15.6307 23.9859 12.3729C23.9859 9.11504 23.9719 8.70723 23.9156 7.42754C23.8594 6.15254 23.6531 5.27598 23.3578 4.5166C23.0625 3.71973 22.6547 3.04941 21.9844 2.38379C21.3188 1.71816 20.6484 1.30566 19.8609 1.00098C19.0969 0.705664 18.225 0.499414 16.95 0.443164C15.6656 0.382227 15.2578 0.368164 12 0.368164Z" fill="#D5D5D5"/>
<path d="M12 6.2041C8.59688 6.2041 5.83594 8.96504 5.83594 12.3682C5.83594 15.7713 8.59688 18.5322 12 18.5322C15.4031 18.5322 18.1641 15.7713 18.1641 12.3682C18.1641 8.96504 15.4031 6.2041 12 6.2041ZM12 16.3666C9.79219 16.3666 8.00156 14.576 8.00156 12.3682C8.00156 10.1604 9.79219 8.36973 12 8.36973C14.2078 8.36973 15.9984 10.1604 15.9984 12.3682C15.9984 14.576 14.2078 16.3666 12 16.3666Z" fill="#D5D5D5"/>
<path d="M19.8469 5.9603C19.8469 6.75718 19.2 7.39937 18.4078 7.39937C17.6109 7.39937 16.9688 6.75249 16.9688 5.9603C16.9688 5.16343 17.6156 4.52124 18.4078 4.52124C19.2 4.52124 19.8469 5.16812 19.8469 5.9603Z" fill="#D5D5D5"/>
</g>
<defs>
<clipPath id="clip0_478_1800">
<rect width="24" height="24" fill="white" transform="translate(0 0.368164)"/>
</clipPath>
</defs>
</svg>
