<svg width="24" height="25" viewBox="0 0 24 25" fill="none" xmlns="http://www.w3.org/2000/svg">
<g clip-path="url(#clip0_478_1801)">
<path d="M22.2234 0.368164H1.77187C0.792187 0.368164 0 1.1416 0 2.09785V22.6338C0 23.59 0.792187 24.3682 1.77187 24.3682H22.2234C23.2031 24.3682 24 23.59 24 22.6385V2.09785C24 1.1416 23.2031 0.368164 22.2234 0.368164ZM7.12031 20.8197H3.55781V9.36348H7.12031V20.8197ZM5.33906 7.80254C4.19531 7.80254 3.27188 6.8791 3.27188 5.74004C3.27188 4.60098 4.19531 3.67754 5.33906 3.67754C6.47813 3.67754 7.40156 4.60098 7.40156 5.74004C7.40156 6.87441 6.47813 7.80254 5.33906 7.80254ZM20.4516 20.8197H16.8937V15.251C16.8937 13.9244 16.8703 12.2135 15.0422 12.2135C13.1906 12.2135 12.9094 13.6619 12.9094 15.1572V20.8197H9.35625V9.36348H12.7687V10.9291H12.8156C13.2891 10.0291 14.4516 9.07754 16.1813 9.07754C19.7859 9.07754 20.4516 11.4494 20.4516 14.5338V20.8197Z" fill="#D5D5D5"/>
</g>
<defs>
<clipPath id="clip0_478_1801">
<rect width="24" height="24" fill="white" transform="translate(0 0.368164)"/>
</clipPath>
</defs>
</svg>
